<svg height="496pt" viewBox="-32 0 496 496" width="496pt" xmlns="http://www.w3.org/2000/svg"><path d="m216 64c-17.648438 0-32 14.351562-32 32s14.351562 32 32 32 32-14.351562 32-32-14.351562-32-32-32zm0 48c-8.824219 0-16-7.175781-16-16s7.175781-16 16-16 16 7.175781 16 16-7.175781 16-16 16zm0 0"/><path d="m311.3125 234.625 22.0625 22.0625c4.714844 4.71875 10.984375 7.3125 17.65625 7.3125 13.769531 0 24.96875-11.199219 24.96875-24.96875 0-6.574219-2.664062-13.007812-7.3125-17.65625l-22.0625-22.0625c-4.714844-4.71875-10.984375-7.3125-17.65625-7.3125-4.761719 0-9.167969 1.40625-12.953125 3.726562l-17.589844-11.726562h-41.480469l12-24h51.054688c8.824219 0 16-7.175781 16-16v-104c0-8.824219-7.175781-16-16-16h-51.71875l-16-24h-72.5625l-16 24h-51.71875c-8.824219 0-16 7.175781-16 16v104c0 8.824219 7.175781 16 16 16h51.054688l12.945312 25.886719v22.113281h-16v38.230469l-102.03125 219.761719c-1.289062 2.769531-1.96875 5.839843-1.96875 8.894531 0 11.640625 9.472656 21.113281 21.105469 21.113281h2.285156c8.417969 0 16.015625-4.992188 19.371094-12.71875l41.652343-96.128906 51.585938 25.792968v59.054688c0 13.230469 10.769531 24 24 24s24-10.769531 24-24v-59.054688l51.585938-25.792968 41.652343 96.128906c3.347657 7.726562 10.953125 12.71875 19.371094 12.71875h2.285156c11.632813 0 21.105469-9.472656 21.105469-21.113281 0-3.054688-.679688-6.132813-1.960938-8.878907l-102.039062-219.777343v-38.230469h-16v-8h37.574219l12.128906 8.089844c-1.054687 2.765625-1.703125 5.742187-1.703125 8.878906 0 6.574219 2.664062 13.007812 7.3125 17.65625zm-143.3125-138.625c0-26.472656 21.527344-48 48-48s48 21.527344 48 48-21.527344 48-48 48-48-21.527344-48-48zm-56-56h60.28125l16-24h55.4375l16 24h60.28125v104h-61.808594c13.335938-11.734375 21.808594-28.878906 21.808594-48 0-35.289062-28.710938-64-64-64s-64 28.710938-64 64c0 19.121094 8.472656 36.265625 21.808594 48h-61.808594zm139.054688 120-8 16h-54.109376l-8-16zm-59.054688 32h16v16h-16zm-16 32h80v16h-80zm-91.921875 252.921875c-.804687 1.871094-2.644531 3.078125-4.6875 3.078125h-2.285156c-2.816407 0-5.105469-2.289062-5.105469-5.113281 0-.734375.167969-1.480469.480469-2.152344l100.625-216.734375h6.710937zm62.714844-104.472656 45.207031-104.328125v126.933594zm69.207031 107.550781c-4.40625 0-8-3.585938-8-8v-216h16v216c0 4.414062-3.59375 8-8 8zm24-84.945312v-126.933594l45.207031 104.328125zm120 79.832031c0 2.824219-2.289062 5.113281-5.105469 5.113281h-2.285156c-2.035156 0-3.875-1.207031-4.6875-3.078125l-95.738281-220.921875h6.710937l100.640625 216.761719c.296875.652343.464844 1.398437.464844 2.125zm-136-266.886719v-16h16v16zm111.3125 2.625 22.0625 22.0625c1.664062 1.671875 2.625 3.984375 2.625 6.34375 0 4.945312-4.023438 8.96875-8.96875 8.96875-2.398438 0-4.648438-.929688-6.34375-2.625l-22.0625-22.0625c-1.664062-1.671875-2.625-3.984375-2.625-6.34375 0-4.945312 4.023438-8.96875 8.96875-8.96875 2.398438 0 4.648438.929688 6.34375 2.625zm0 0"/><path d="m288 112h16v16h-16zm0 0"/><path d="m128 112h16v16h-16zm0 0"/><path d="m62.632812 137.9375 11.3125-11.3125-14.632812-14.625h20.6875v-16h-20.6875l14.632812-14.625-11.3125-11.3125-14.632812 14.625v-20.6875h-16v20.6875l-14.632812-14.625-11.3125 11.3125 14.632812 14.625h-20.6875v16h20.6875l-14.632812 14.625 11.3125 11.3125 14.632812-14.625v20.6875h16v-20.6875zm-16.007812-17.9375h-13.25l-9.375-9.375v-13.25l9.375-9.375h13.25l9.375 9.375v13.25zm0 0"/><path d="m432 144h-20.6875l14.632812-14.625-11.3125-11.3125-14.632812 14.625v-20.6875h-16v20.6875l-14.632812-14.625-11.3125 11.3125 14.632812 14.625h-20.6875v16h20.6875l-14.632812 14.625 11.3125 11.3125 14.632812-14.625v20.6875h16v-20.6875l14.632812 14.625 11.3125-11.3125-14.632812-14.625h20.6875zm-24 1.375v13.25l-9.375 9.375h-13.25l-9.375-9.375v-13.25l9.375-9.375h13.25zm0 0"/></svg>